<?xml version="1.0" encoding="UTF-8" standalone="no"?>
<!DOCTYPE svg PUBLIC "-//W3C//DTD SVG 1.1//EN" "http://www.w3.org/Graphics/SVG/1.1/DTD/svg11.dtd">
<svg width="100%" height="100%" viewBox="0 0 512 512" version="1.1" xmlns="http://www.w3.org/2000/svg" xmlns:xlink="http://www.w3.org/1999/xlink" xml:space="preserve" xmlns:serif="http://www.serif.com/" style="fill-rule:evenodd;clip-rule:evenodd;stroke-linejoin:round;stroke-miterlimit:2;">
    <path d="M256,64C361.968,64 448,150.032 448,256C448,361.968 361.968,448 256,448C150.032,448 64,361.968 64,256C64,150.032 150.032,64 256,64ZM224,82.907C226.975,82.36 233,82 233,89.409L233,128C233,128 233.104,160 224,160C214.896,160 208,162.034 208,176C208,189.966 210.53,208 192,208C173.47,208 188.173,193.907 176,188C163.827,182.093 151.771,176 144,176C136.229,176 127.864,176.943 128,192C128.136,207.057 150.179,229.537 160,240C169.821,250.463 169.84,247.186 176,248C182.16,248.814 202.289,245.221 208,256C213.711,266.779 217.318,265.952 224,266C230.682,266.048 238.527,264.174 244,272C249.473,279.826 245.114,286.831 256,293C266.886,299.169 293.834,305.2 284,320C274.166,334.8 266.01,334.03 266,345C265.99,355.97 255.485,352.53 243,361C230.515,369.47 242.582,378.828 240,384C238.628,386.749 228.142,405.134 217.211,420.826C215,424 209,426 204.089,424.206C189.93,419.035 176.112,413.39 163.51,405.714C160,403.576 160,401.167 160,400L160,384C160,384 160.793,368 150,368C139.207,368 123,345.91 123,336L123,288C123,288 121.301,280.643 130.357,280.643C139.413,280.643 143.966,278.593 144,272C144.034,265.407 150.204,240 121,240C109.625,240 97.856,237.572 87.727,234.609C85.584,233.981 81.531,232 82.492,226.349C94.832,153.732 151.719,96.202 224,82.907ZM416,205.722C419.164,206.373 426,209 427.013,214.264C429.616,227.79 432,241.623 432,256C432,274.316 429.196,291.983 423.992,308.601C423.358,310.622 420.066,310.841 418.49,309.116C416.795,307.261 414.628,305.543 412,304C404.741,299.737 396.448,314.148 384,312C371.552,309.852 360.508,299.361 352,284C343.492,268.639 358.436,231.094 361,224C363.564,216.906 369.349,205.616 387,203C394.039,201.957 405.166,203.495 416,205.722ZM366.654,124.799C368.019,123.024 371.025,122.815 372.493,124.113C383.784,134.093 393.572,145.448 402,158C402.678,159.009 401.358,160.848 400,160.707C389.204,159.591 381.514,158.003 379,157C374.757,155.308 374.272,161.118 371,171C367.728,180.882 358.57,184.58 352,184C345.43,183.42 333.21,175.167 328,170C322.79,164.833 327.69,150.446 330,140C332.31,129.554 335.044,128 341,128L358,128C362.824,128 365.345,126.5 366.654,124.799Z" style="fill:white;"/>
</svg>
