<?xml version="1.0" encoding="UTF-8" standalone="no"?>
<!DOCTYPE svg PUBLIC "-//W3C//DTD SVG 1.1//EN" "http://www.w3.org/Graphics/SVG/1.1/DTD/svg11.dtd">
<svg width="100%" height="100%" viewBox="0 0 512 512" version="1.1" xmlns="http://www.w3.org/2000/svg" xmlns:xlink="http://www.w3.org/1999/xlink" xml:space="preserve" xmlns:serif="http://www.serif.com/" style="fill-rule:evenodd;clip-rule:evenodd;stroke-linejoin:round;stroke-miterlimit:2;">
    <path d="M332,227C253,247 222.331,204.862 202,182C191.746,184.756 182.695,188.551 176,194.589C170,200 158,204 158,192L158,160C158,160 157.897,142.231 144,138C136.411,135.69 122.796,131.131 112,127.469C103.026,124.425 103,120 112,116.8C132.368,109.558 206.916,85.667 240,75.102C249.83,71.963 262.784,72.159 272,75.102C305.084,85.667 379.632,109.558 400,116.8C409,120 408.974,124.425 400,127.469C389.204,131.131 375.589,135.69 368,138C354.103,142.231 354,160 354,160L354,192C354,204 347.988,222.952 332,227Z" style="fill:white;"/>
    <g id="Layer1">
        <path d="M128.584,448C112.584,448 112.584,448 112.063,432C111.109,402.716 120.547,340.933 176.584,313.419C185.584,309 192.629,312 196.652,320C200.674,328 208.674,336 224.584,336L288,336C303.909,336 311.909,328 315.932,320C319.955,312 327,309 336,313.419C392.036,340.933 401.475,402.716 400.521,432C400,448 400,448 384,448L128.584,448Z" style="fill:white;"/>
        <path d="M378,327C375.539,327 371,324.446 371,320L371,176C371,169.504 372.138,165.296 374,163C376.533,159.876 380,161 380,155.186L380,132L384,128L388,132L388,155.186C388,161 391.467,159.876 394,163C395.862,165.296 397,169.504 397,176L397,320C397,324.446 392.461,327 390,327L378,327Z" style="fill:white;"/>
    </g>
</svg>
