<?xml version="1.0" encoding="UTF-8" standalone="no"?>
<!DOCTYPE svg PUBLIC "-//W3C//DTD SVG 1.1//EN" "http://www.w3.org/Graphics/SVG/1.1/DTD/svg11.dtd">
<svg width="100%" height="100%" viewBox="0 0 952 714" version="1.1" xmlns="http://www.w3.org/2000/svg" xmlns:xlink="http://www.w3.org/1999/xlink" xml:space="preserve" xmlns:serif="http://www.serif.com/" style="fill-rule:evenodd;clip-rule:evenodd;stroke-linejoin:round;stroke-miterlimit:2;">
    <g transform="matrix(0.964386,0,0,0.979223,0.408512,1.77326)">
        <rect x="-0.424" y="-1.811" width="987.157" height="729.15" style="fill:rgb(219,119,146);"/>
    </g>
    <g id="Layer1">
        <g>
            <g transform="matrix(-1,0,0,1,469.973,-185.026)">
                <path d="M301.929,349.004C301.939,344.196 301.973,341.026 293.929,337.004C245.716,312.898 162.028,269.648 134.04,256.98C131.31,255.745 126,258.004 126,261C126,308.71 125.961,448.415 125.961,501.02C125.961,505.827 129.661,510.87 133.961,513.02C186.92,539.499 239.534,565.807 293.929,593.004C296.609,594.344 301.966,591.98 301.968,588.984C302.003,533.226 301.819,402.524 301.929,349.004ZM269.929,365.004C269.929,360.196 266.229,355.154 261.929,353.004C221.628,332.853 206.35,325.126 166.05,304.975C163.366,303.634 158,306 158,309C158,349.074 157.951,444.95 157.951,485.025C157.951,489.834 161.698,494.849 166,497C197.153,512.576 243.487,535.768 261.933,545.001C266.971,547.523 269.929,546.102 269.929,541.004L269.929,365.004Z" style="fill:white;"/>
            </g>
            <g>
                <path d="M352,160L272,200L272,352L248,364L168,324L168,452L360,356L352,160Z" style="fill:rgb(219,119,146);"/>
            </g>
        </g>
        <g transform="matrix(1,0,0,1,366.535,73.3811)">
            <g transform="matrix(-1,0,0,1,425.523,-99.4498)">
                <path d="M301.929,252.994C301.939,248.186 301.973,245.016 293.929,240.994C245.716,216.888 90.368,137.882 48.049,118.064C45.335,116.793 40.009,119.087 40.009,122.083C40.009,169.793 39.97,405.508 39.97,458.113C39.97,462.921 43.67,467.963 47.97,470.113C100.928,496.593 239.534,565.807 293.929,593.004C296.609,594.344 301.966,591.98 301.968,588.984C302.003,533.226 301.819,306.514 301.929,252.994ZM269.929,268.994C269.929,264.186 266.229,259.144 261.929,256.994C221.628,236.843 120.359,186.209 80.059,166.059C77.375,164.717 72.009,167.084 72.009,170.083C72.009,210.158 71.96,402.044 71.96,442.118C71.96,446.928 75.707,451.942 80.009,454.093C111.162,469.67 243.487,535.768 261.933,545.001C266.971,547.523 269.929,546.102 269.929,541.004L269.929,268.994Z" style="fill:white;"/>
            </g>
            <g>
                <g transform="matrix(1,0,0,1,-366.535,-73.3811)">
                    <path d="M480,448L624,376L624,144L480,216L480,448" style="fill:rgb(219,119,146);"/>
                </g>
                <g transform="matrix(1,0,0,1,-366.535,-73.3811)">
                    <path d="M608,264L872,132L872,476L608,608L608,264" style="fill:rgb(219,119,146);"/>
                </g>
            </g>
        </g>
    </g>
    <g id="Layer2">
        <g transform="matrix(1,0,0,1,-6.08402e-14,8)">
            <g transform="matrix(1,0,0,1,-29.9287,42.9963)">
                <path d="M301.929,349.004C301.939,344.196 298.185,339.238 293.929,337.004C246.203,311.948 162.028,269.648 134.04,256.98C131.31,255.745 126,258.004 126,261C126,308.71 125.961,448.415 125.961,501.02C125.961,505.827 129.661,510.87 133.961,513.02C186.92,539.499 239.534,565.807 293.929,593.004C296.609,594.344 301.966,591.98 301.968,588.984C302.003,533.226 301.819,402.524 301.929,349.004ZM269.929,365.004C269.929,360.196 266.229,355.154 261.929,353.004C221.628,332.853 206.35,325.126 166.05,304.975C163.366,303.634 158,306 158,309C158,349.074 157.951,444.95 157.951,485.025C157.951,489.834 161.698,494.849 166,497C197.153,512.576 243.487,535.768 261.933,545.001C266.971,547.523 269.929,546.102 269.929,541.004L269.929,365.004Z" style="fill:white;"/>
            </g>
            <g transform="matrix(-1,0,0,1,368,48)">
                <path d="M256,352L256,368L96,448L112,424L256,352Z" style="fill:white;"/>
            </g>
            <g transform="matrix(-0.666667,0,0,0.686215,304,163.473)">
                <path d="M192,352L192,368L208,360L216,348L224,352L240,344L240,328L232,324L240,312L240,296L224,304L216,316L208,312L192,320L192,336L200,340L192,352Z" style="fill:white;"/>
            </g>
            <g transform="matrix(1,0,0,1,-192,247.967)">
                <path d="M344.003,203.999C341.335,202.665 336,205.018 336,208L336,240C336,244.807 339.697,249.852 343.996,252.002C376.445,268.226 375.521,267.868 408,284.033C410.669,285.361 416,283.014 416,280.033L416,248.033C416,243.226 412.3,238.183 408,236.033C370.919,217.492 385.686,224.82 365.814,214.881C310.83,187.38 367.93,215.963 344.003,203.999ZM360,228C351.983,223.991 352,224.099 352,232C352,239.901 351.908,239.954 360,244C391.218,259.609 364.862,246.464 392,260.033C400.037,264.051 400,264.108 400,256.033C400,247.958 399.776,247.921 392,244.033C363.958,230.012 390.152,243.076 360,228Z" style="fill:white;"/>
            </g>
            <g transform="matrix(1,0,0,1,-192,311.94)">
                <path d="M344.003,203.999C341.335,202.665 336,205.018 336,208L336,240C336,244.807 339.697,249.852 343.996,252.002C376.445,268.226 375.521,267.868 408,284.033C410.669,285.361 416,283.014 416,280.033L416,248.033C416,243.226 412.3,238.183 408,236.033C370.919,217.492 385.686,224.82 365.814,214.881C310.83,187.38 367.93,215.963 344.003,203.999ZM360,228C351.983,223.991 352,224.099 352,232C352,239.901 351.908,239.954 360,244C391.218,259.609 364.862,246.464 392,260.033C400.037,264.051 400,264.108 400,256.033C400,247.958 399.776,247.921 392,244.033C363.958,230.012 390.152,243.076 360,228Z" style="fill:white;"/>
            </g>
        </g>
        <g>
            <g transform="matrix(-1,0,0,1,734,-205)">
                <path d="M446,421C446.01,416.193 442.256,411.235 438,409C390.274,383.944 186.04,281.647 134.04,256.98C131.333,255.696 126,258.004 126,261C126,308.71 125.961,512.415 125.961,565.02C125.961,569.827 129.661,574.87 133.961,577.02C186.92,603.499 383.606,701.803 438,729C440.68,730.34 446.038,727.976 446.04,724.98C446.074,669.222 445.891,474.52 446,421ZM414,437C414,432.193 410.3,427.15 406,425C365.699,404.85 206.35,325.126 166.05,304.975C163.366,303.634 158,306 158,309C158,349.074 157.951,508.95 157.951,549.025C157.951,553.834 161.698,558.849 166,561C205.661,580.83 414,685 414,685L414,437Z" style="fill:white;"/>
            </g>
            <g transform="matrix(-1,0,0,1,896,4.79616e-14)">
                <path d="M304,152L592,296L592,312L304,168L304,152Z" style="fill:white;"/>
            </g>
            <g transform="matrix(-1,0,0,1,896,4.79616e-14)">
                <path d="M344.003,203.999C341.335,202.665 336,205.018 336,208L336,240C336,244.807 339.697,249.852 343.996,252.002C376.445,268.226 519.521,339.835 552,356C554.669,357.328 560,354.981 560,352L560,320C560,315.193 556.297,310.155 552,308C543.221,303.597 526.916,295.437 507.044,285.497C452.06,257.996 367.93,215.963 344.003,203.999ZM360,228C351.983,223.991 352,224.099 352,232C352,239.901 351.908,239.954 360,244C391.218,259.609 508.862,318.431 536,332C544.037,336.018 544,336.075 544,328C544,319.925 543.776,319.888 536,316C507.958,301.979 390.152,243.076 360,228Z" style="fill:white;"/>
            </g>
            <g transform="matrix(-1,0,0,1,896,64.0262)">
                <path d="M344.003,203.999C341.335,202.665 336,205.018 336,208L336,311.974C336,316.781 339.697,321.826 343.996,323.976C376.445,340.2 519.521,411.809 552,427.974C554.669,429.302 560,426.955 560,423.974L560,320C560,315.193 556.297,310.155 552,308C543.221,303.597 526.916,295.437 507.044,285.497C452.06,257.996 367.93,215.963 344.003,203.999ZM360,228C351.983,223.991 352,224.099 352,232L352,303.974C352,312.376 352.484,312.216 360,315.974C391.218,331.583 508.862,390.405 536,403.974C537.905,404.926 544,407.91 544,399.974L544,328C544,319.925 543.776,319.888 536,316C507.958,301.979 390.152,243.076 360,228Z" style="fill:white;"/>
            </g>
            <g transform="matrix(0.666667,0,0,0.686215,206.592,12.1765)">
                <path d="M192,352L192,368L208,360L216,348L224,352L240,344L240,328L232,324L240,312L240,296L224,304L216,316L208,312L192,320L192,336L200,340L192,352Z" style="fill:white;"/>
            </g>
        </g>
        <g>
            <g transform="matrix(-1,0,0,1,1069.41,-141.301)">
                <path d="M446,421C446.01,416.193 442.256,411.235 438,409C390.274,383.944 252.216,315.231 213.452,297.282C210.733,296.023 205.412,298.305 205.412,301.301C205.412,349.011 205.373,552.716 205.373,605.321C205.373,610.129 209.073,615.171 213.373,617.321C266.332,643.801 383.606,701.803 438,729C440.68,730.34 446.038,727.976 446.04,724.98C446.074,669.222 445.891,474.52 446,421ZM414,437C414,432.193 410.3,427.15 406,425C365.699,404.85 285.763,365.427 245.462,345.277C242.778,343.935 237.412,346.302 237.412,349.301C237.412,389.376 237.363,549.252 237.363,589.326C237.363,594.136 241.11,599.15 245.412,601.301C285.073,621.132 414,685 414,685L414,437Z" style="fill:white;"/>
            </g>
            <g transform="matrix(-1,0,0,1,1488.59,31.1492)">
                <path d="M648.59,228.295L840.59,324.851L840.59,340.851L656,248" style="fill:white;"/>
            </g>
            <g transform="matrix(-1,0,0,1,1232,63.4702)">
                <path d="M424.532,244.264C421.865,242.93 416.53,245.283 416.53,248.265L416.53,344.795C416.53,349.602 420.227,354.647 424.526,356.797C456.975,373.021 519.521,404.365 552,420.53C554.669,421.858 560,419.511 560,416.53L560,320C560,315.193 556.297,310.155 552,308C543.221,303.597 526.916,295.437 507.044,285.497C452.06,257.996 448.46,256.228 424.532,244.264ZM440.53,268.265C432.512,264.256 432.53,264.364 432.53,272.265L432.53,336.795C432.53,345.197 433.014,345.037 440.53,348.795C471.748,364.404 508.862,382.961 536,396.53C537.905,397.482 544,400.466 544,392.53L544,328C544,319.925 543.776,319.888 536,316C507.958,301.979 470.682,283.341 440.53,268.265Z" style="fill:white;"/>
            </g>
            <g transform="matrix(-1,0,0,1,1232,191.966)">
                <path d="M424.532,244.264C421.865,242.93 416.53,245.283 416.53,248.265L416.53,295.709C416.53,300.516 420.227,305.561 424.526,307.711C456.975,323.935 519.521,355.279 552,371.444C554.669,372.772 560,370.425 560,367.444L560,320C560,315.193 556.297,310.155 552,308C543.221,303.597 526.916,295.437 507.044,285.497C452.06,257.996 448.46,256.228 424.532,244.264ZM440.53,268.265C432.512,264.256 432.53,264.364 432.53,272.265C432.53,278.312 432.53,265.193 432.53,287.709C432.53,296.111 433.014,295.951 440.53,299.709C471.748,315.318 508.862,333.875 536,347.444C537.905,348.396 544,351.38 544,343.444C544,324.695 544,334.161 544,328C544,319.925 543.776,319.888 536,316C507.958,301.979 470.682,283.341 440.53,268.265Z" style="fill:white;"/>
            </g>
            <g transform="matrix(0.666667,0,0,0.686215,544,74.9167)">
                <path d="M192,352L192,368L207.748,360.35L216,348L223.919,352.495L240,344.684L240,328L232,324L240,312L240,296L224,304L216,316L208,312L192,320L192,336L200,340L192,352Z" style="fill:white;"/>
            </g>
        </g>
    </g>
</svg>
