<?xml version="1.0" encoding="UTF-8" standalone="no"?>
<!DOCTYPE svg PUBLIC "-//W3C//DTD SVG 1.1//EN" "http://www.w3.org/Graphics/SVG/1.1/DTD/svg11.dtd">
<svg width="100%" height="100%" viewBox="0 0 512 512" version="1.1" xmlns="http://www.w3.org/2000/svg" xmlns:xlink="http://www.w3.org/1999/xlink" xml:space="preserve" xmlns:serif="http://www.serif.com/" style="fill-rule:evenodd;clip-rule:evenodd;stroke-linejoin:round;stroke-miterlimit:2;">
    <g transform="matrix(1,0,0,1,-13.3088,16)">
        <path d="M295.758,368C298.506,373.333 300.773,384 288,384L240,384C232.566,384 227.363,384 219.701,368C210.014,347.769 194,314.327 189.055,304C185.903,297.419 181.786,297.423 178.626,304C170,321.952 153.2,356.916 147.874,368C145.311,373.333 142,384 128,384L80,384C75,384 65.798,380 72,368C81.293,350.021 113.504,287.98 130.111,256C138.939,239 140.39,237 133.742,224C119.421,195.996 85.502,129.666 76.468,112C74.621,108.388 74,101.163 82.899,101.163C90.503,101.163 112.161,101.315 128,101.163C145,101 148,105 150.933,112C155.352,122.544 171.129,157.295 179.65,176C182.982,183.314 187.324,183.314 190.513,176C198.684,157.263 213.873,122.431 218.421,112C222.782,102 230.464,101.163 240,101.163L283,101.163C289.878,101.163 294.343,103.644 291,112C286.96,121.691 286.463,122.957 284.074,128C275.234,146.667 240.764,215.126 235.958,224C228.823,238.091 228.856,238.12 238.066,256L295.758,368Z" style="fill:white;fill-rule:nonzero;"/>
    </g>
    <g transform="matrix(1,0,0,1,2.69123,16)">
        <path d="M292.094,112C293.905,108.388 298,101.163 304,101.163L375.059,101.163C400.99,101.163 420.411,108.687 433.324,123.736C446.236,138.784 452.693,160.2 452.693,187.982C452.693,216.536 445.657,238.851 431.585,254.929C417.512,271.007 396.035,279.045 367.153,279.045L336,279.045C331,279.045 327.944,282.446 327.948,288C327.963,309.465 328,363.103 328,377C328,378 326,384 320,384C305,384 298.506,373.333 295.758,368C290.104,357.023 272.581,323.005 262.791,304C258.73,296.116 256,284.49 256,274.985L256,192C256,187 257.548,180.924 260.016,176C268.26,159.551 286.767,122.627 292.094,112ZM327.951,214.4C327.945,218.869 329,221.745 336,221.745L345.492,221.745C359.301,221.745 368.998,218.819 374.585,212.967C380.171,207.114 382.965,199.622 382.965,190.49C382.965,181.615 380.54,174.091 375.692,167.917C370.843,161.743 361.725,158.656 348.338,158.656L336,158.656C332,158.656 328,161 328,166C328,173.864 327.967,201.144 327.951,214.4Z" style="fill:white;fill-rule:nonzero;"/>
    </g>
</svg>
