<?xml version="1.0" encoding="UTF-8" standalone="no"?>
<!DOCTYPE svg PUBLIC "-//W3C//DTD SVG 1.1//EN" "http://www.w3.org/Graphics/SVG/1.1/DTD/svg11.dtd">
<svg width="100%" height="100%" viewBox="0 0 952 714" version="1.1" xmlns="http://www.w3.org/2000/svg" xmlns:xlink="http://www.w3.org/1999/xlink" xml:space="preserve" xmlns:serif="http://www.serif.com/" style="fill-rule:evenodd;clip-rule:evenodd;stroke-linejoin:round;stroke-miterlimit:2;">
    <g transform="matrix(0.964386,0,0,0.979223,0.408512,1.77326)">
        <rect x="-0.424" y="-1.811" width="987.157" height="729.15" style="fill:rgb(219,119,146);"/>
    </g>
    <g id="Layer2">
        <g transform="matrix(1,0,0,1,-16,8)">
            <g transform="matrix(1,0,0,1,16,-8)">
                <path d="M416,488C416,488 416.875,349.875 416,328C415.922,326.055 412.42,321.701 410.593,325.796C403.135,342.509 377.732,399.354 368,416C359.262,430.946 342.081,443.626 335.297,456.351C329.515,467.199 327.297,481.685 327.297,492.351C327.297,498.3 330.302,507.474 332.629,513.686C334.955,519.897 364.036,536.438 356.453,540.227C333.249,551.82 261.705,587.889 244.428,596.214C238.233,599.198 198.728,579.482 200,572C201.453,563.453 215.297,555.289 215.297,548.351C215.297,538.644 213.847,526.41 207.297,520.351C200.748,514.293 184.818,518.231 176,512C164.95,504.191 147.667,480.833 141,473.5C136.606,468.667 135.034,468.557 135.274,476.363C136,500 135.888,584.345 136,604C136.015,606.601 136.384,609.724 138.442,610.779C144.795,614.034 144.294,614.02 144,624C143.882,627.999 143.933,639.916 143.954,648.023C143.976,656.626 144.182,656.09 136.008,651.996C127.834,647.902 115.811,641.885 112,640C104.181,636.133 104.03,635.18 104.098,628.049C104.516,584.412 100.07,329.617 112,264C119.692,221.695 149.333,184 176,152C202.667,120 240,88 272,72C301.016,57.492 341.333,50.667 368,56C394.149,61.23 426.215,77.968 432,104C445.333,164 448,472 448,472L616,388C647.667,372.167 647.69,371.845 616,356C584,340 584,340 616,324C638.212,312.894 666.2,298.9 680,292C712,276 712,276 744,292C770.216,305.108 827.397,333.699 848,344C880,360 880,360 847.805,375.903C802.694,398.185 502.826,548.587 464,568C432,584 432,584 464,600C496,616 496,616 528,600C541.803,593.099 569.814,579.13 592.022,568.011C624,552 624,552 656,568C666.667,573.333 688,584 688,584L720,632C720,632 672,608 656,600C624,584 624,584 592,600C576,608 540.027,625.986 528,632C496,648 496,648 464,632C451.973,625.986 416,608 400,600C368,584 368,584 400,568C441.104,547.448 717.916,409.042 784,376C816,360 816,360 784.129,343.935C772.899,338.275 760.44,332.067 752.127,327.936C712,308 712,308 680,324C648,340 648,340 680,356C711.803,371.901 711.667,372.167 680,388L448.009,503.995C448.016,504.005 448,504 448,504L448.009,503.995C416,520 416,520 416,488ZM296,468C300.396,465.802 305.752,459.771 307.2,457.6C314.873,446.098 326.964,435.221 336,424C346.709,410.701 359.363,398.729 368,384C379.487,364.41 403.515,308.921 410.423,293.712C413.375,287.213 413.469,287.342 413.392,279.304C413.127,251.347 405.649,146.548 400,120C396.861,105.245 382.968,89.871 368,88C346.667,85.333 301.016,89.492 272,104C240.02,119.99 197.455,159.939 176.122,183.939C160.251,201.793 148.139,224.474 144,248C138.334,280.205 136.371,399.568 136.106,427.947C136.031,436.062 135.772,436.224 140.615,441.692C149.485,451.708 167.101,473.465 176,480C184.703,486.391 198.081,484.959 207.297,488.351C215.691,491.44 225.281,493.733 231.297,500.351C237.964,507.685 244.846,524.347 246,533C248,548 248,548 240,552C232,556 232,556 240,560C248,564 248,564 256,560C256,560 301.811,537.094 312,532C320,528 320,528 312,524C308.46,522.23 306.908,521.033 304,520C300.337,518.699 295.689,517.076 295.297,508.351C295.046,502.742 296.419,500.877 296.844,491.578C297.2,483.769 296.498,500.241 288,504C284.875,505.382 282.099,506.997 280.136,508.068C272.752,512.099 272.469,512.068 260.136,510.068C247.803,508.068 246.92,508.676 256.136,504.068C262.808,500.732 284.472,473.764 296,468Z" style="fill:white;"/>
            </g>
            <path d="M696,252L696,468L848,432L848,248L696,252Z" style="fill:rgb(219,119,146);"/>
        </g>
        <g transform="matrix(1,0,0,1,-64,24)">
            <path d="M216,252C216,245.47 216.276,240.205 216.276,235.998C216.276,219.93 216.14,219.93 232.14,211.93C248.14,203.93 247.46,204.27 248,220C248.14,224.088 248,229.398 248,236C248,252 248,252 232,260C216,268 216,268 216,252Z" style="fill:white;"/>
        </g>
        <g transform="matrix(1,0,0,1,144,-80)">
            <path d="M216,252C216,245.47 216.276,240.205 216.276,235.998C216.276,219.93 216.14,219.93 232.14,211.93C248.14,203.93 247.46,204.27 248,220C248.14,224.088 248,229.398 248,236C248,252 248,252 232,260C216,268 216,268 216,252Z" style="fill:white;"/>
        </g>
        <g transform="matrix(1,0,0,1,599.151,36.5629)">
            <g transform="matrix(1,0,0,1,-29.9287,42.9963)">
                <path d="M245.929,65.004C245.939,60.196 242.185,55.238 237.929,53.004C190.203,27.948 152.694,8.981 134.04,0.98C131.286,-0.201 126,2.004 126,5C126,52.71 129.078,408.986 129.078,461.591C129.078,466.398 168.668,561.386 180.164,567.134C193.989,574.046 249.084,524.551 249.086,521.555C249.121,465.797 245.819,118.524 245.929,65.004ZM213.929,81.004C213.929,76.196 210.229,71.154 205.929,69.004C197.628,64.853 174.35,53.126 166.05,48.975C163.366,47.634 158,50 158,53C158,93.074 161.068,405.521 161.068,445.596C161.068,485.887 180.164,535.134 180.164,535.134C180.164,535.134 217.046,499.245 217.046,473.575C217.046,443.227 213.929,118.47 213.929,81.004Z" style="fill:white;"/>
            </g>
            <g transform="matrix(-1,0,0,1,360,-228)">
                <path d="M256,352L256,368L160,416L160,400L256,352Z" style="fill:white;"/>
            </g>
            <g transform="matrix(0.89133,0.453356,-0.453356,0.89133,-333.235,-318.834)">
                <path d="M768.949,487.756C774.283,487.756 785.492,499.293 792,500C797.928,500.644 802.667,492 808,492C813.333,492 818.667,500 824,500C829.333,500 836.682,490.856 840,492C843.318,493.144 846.577,502.865 843.91,506.865C841.244,510.865 829.985,515.811 824,516C818.04,516.188 813.333,508 808,508C802.667,508 797.882,516.98 792,516C784,514.667 763.842,504.707 760,500C756.804,496.084 763.894,487.756 768.949,487.756Z" style="fill:white;"/>
            </g>
            <g transform="matrix(-0.446347,0,0,0.446347,253.7,83.4605)">
                <path d="M216.985,837.86C216.985,831.331 216.276,240.205 216.276,235.998C216.276,219.93 216.14,219.93 232.14,211.93C248.14,203.93 247.46,204.27 248,220C248.14,224.088 248.985,815.259 248.985,821.86C248.985,837.86 248.985,837.86 232.985,845.86C216.985,853.86 216.985,853.86 216.985,837.86Z" style="fill:white;"/>
            </g>
        </g>
        <g transform="matrix(1,0,0,1,-12.0043,36.541)">
            <path d="M280,276C276.345,294.606 290,316 290,332C290,336.514 282.85,342.681 280,348C275.322,356.732 289.004,373.959 289.004,373.959C289.004,373.959 281.085,362.203 273.004,373.959C268.928,379.889 257.454,391.734 251.004,394.959C243.004,398.959 244.44,408.241 252.106,404.408L276.004,390.459C276.004,390.459 281.338,391.792 284.004,390.459C292.004,386.459 297.004,386.292 297.004,393.959C297.004,401.626 289.004,405.959 289.004,405.959C289.004,405.959 283.671,408.626 281.004,409.959C273.338,413.792 272.671,413.959 277.004,419.959C278.412,421.908 281.036,425.899 289.004,421.959C291.504,420.709 294.877,419.023 297.004,417.959C305.079,413.921 305.004,405.959 305.004,405.959C305.004,405.959 313.004,397.626 313.004,388.959C313.004,381.292 314.494,376.166 316.004,371.459C319.24,369.841 327.004,365.959 327.004,365.959C334.671,362.126 334.004,354.459 326.004,358.459C324.286,359.318 312.09,360.502 309.004,358.959C307.254,358.084 291.501,358.493 292,354C292.499,349.507 307.86,348.991 312,332C312.537,329.795 305.334,319.682 304,312C301.114,295.38 294.176,294.942 296,284C298.021,271.875 320,240 320,240C320,240 334.667,243.333 336,248C333.141,253.394 349.803,242.563 352,240C355.881,235.473 362.667,232 368,232C370.426,232 384,224 384,224C384,224 379.23,210.385 384,208C390.667,204.667 424,204 424,204L424,188C424,188 403.467,168.724 392,172C373.333,177.333 330.667,202.667 312,220C296.245,234.629 283.667,257.333 280,276ZM216,292C216,292 239.385,294.999 232,292C230.667,286 248,268 248,268L272,264C272,264 256.823,250.53 248,252C232,254.667 192.666,267.424 176,280C161.339,291.064 148.004,327.459 148.004,327.459L148.004,345.459C148.004,345.459 172.667,300.91 184,292C192.385,285.407 216,292 216,292Z" style="fill:white;"/>
            <g transform="matrix(1,0,0,1,-303.521,111.761)">
                <path d="M548.101,176.787C548.28,175.886 548.383,174.895 548.383,173.808C548.383,165.856 556.152,161.859 556.383,169.808C556.508,174.085 554.762,176.943 553.121,178.672C556.09,180.105 558.651,181.976 560,184C562.667,188 564.252,192.773 560,200C554.456,209.424 544,224 520,236C496,248 485.396,244.396 480,240C476.892,237.467 478.019,228.952 480,224C480.613,222.467 481.448,220.747 482.449,218.919C480.983,219.454 479.016,219.202 479.016,214.007C479.016,206.054 486.784,202.057 487.016,210.007C487.03,210.508 487.063,210.962 487.111,211.372C489.846,207.356 492.967,203.337 496,200C499.571,196.072 503.906,191.762 508.391,187.992L508.391,183.811C508.391,175.858 516.16,171.862 516.391,179.811C516.415,180.626 516.434,181.358 516.449,182.016C517.652,181.258 518.84,180.58 520,180C527.254,176.373 537.333,175.333 544,176C545.317,176.132 546.707,176.402 548.101,176.787ZM544,192C556.656,196.381 536.537,209.287 534.198,211.025C524.707,218.078 512.654,225.347 500.409,226.205C488.348,226.349 488.731,226.112 496,216C503.442,206.291 514.233,197.411 525.901,193.598C531.463,191.781 538.189,190.425 544,192Z" style="fill:white;"/>
                <g transform="matrix(1,0,0,1,2.61602,-8)">
                    <circle cx="517.732" cy="215.732" r="13.732" style="fill:white;"/>
                </g>
            </g>
            <g transform="matrix(1,0,0,1,-158.521,39.2606)">
                <path d="M548.101,176.787C548.28,175.886 548.383,174.895 548.383,173.808C548.383,165.856 556.152,161.859 556.383,169.808C556.508,174.085 554.762,176.943 553.121,178.672C556.09,180.105 558.651,181.976 560,184C562.667,188 564.252,192.773 560,200C554.456,209.424 544,224 520,236C496,248 485.396,244.396 480,240C476.892,237.467 478.019,228.952 480,224C480.613,222.467 481.448,220.747 482.449,218.919C480.983,219.454 479.016,219.202 479.016,214.007C479.016,206.054 486.784,202.057 487.016,210.007C487.03,210.508 487.063,210.962 487.111,211.372C489.846,207.356 492.967,203.337 496,200C499.571,196.072 503.906,191.762 508.391,187.992L508.391,183.811C508.391,175.858 516.16,171.862 516.391,179.811C516.415,180.626 516.434,181.358 516.449,182.016C517.652,181.258 518.84,180.58 520,180C527.254,176.373 537.333,175.333 544,176C545.317,176.132 546.707,176.402 548.101,176.787ZM544,192C556.656,196.381 536.537,209.287 534.198,211.025C524.707,218.078 512.654,225.347 500.409,226.205C488.348,226.349 488.731,226.112 496,216C503.442,206.291 514.233,197.411 525.901,193.598C531.463,191.781 538.189,190.425 544,192Z" style="fill:white;"/>
                <g transform="matrix(1,0,0,1,2.61602,-8)">
                    <circle cx="517.732" cy="215.732" r="13.732" style="fill:white;"/>
                </g>
            </g>
        </g>
        <g transform="matrix(1,0,0,1,-16,8)">
            <path d="M217,219.5C209,223.5 209,223.5 209,231.63L209,247.5C209,255.5 209,255.5 217,251.5C217,243.5 217,243.5 225.111,239.41C242.803,230.49 323.787,190.107 352,176C360,172 359.078,180.461 360,180C368,176 368,176 368,168L368,152C368,144 368,144 360,148C360,156 360,156 352.13,159.935C322.124,174.938 245.811,213.094 225,223.5C217,227.5 217,220.647 217,219.5Z" style="fill:white;"/>
        </g>
        <g transform="matrix(1,0,0,1,-16,8)">
            <path d="M152,300C152,300 156.005,327.929 184,316C184,316 179.149,329.76 168,332C156.851,334.24 152.434,328.137 152,324C151.566,319.863 152,300 152,300ZM265,240C265,240 268.183,262.2 288.712,258.561C291.21,258.119 295.936,259.019 293.658,262.459C291.073,266.363 286.926,270.809 281,272C275.192,273.167 273,284 265,288L249,296C249,296 220.773,294.113 225,292L257,244C259.667,242.667 265,240 265,240ZM328,212C319.784,216.108 311.461,243.522 292.955,246.069C289.107,246.599 283.657,247.066 289.036,249.969C292.486,251.831 296.644,253.625 301,254.5C306.808,255.667 317,254.5 325,258.5C325,250.5 334.987,232.506 344,228C352,224 344.589,227.706 368,216C344,228 344,220.537 344,212C344,204 344,204 336,208C331.408,210.296 336,208 328,212ZM433.461,167.269C433.461,167.269 430.217,189.892 409.16,185.72C406.82,185.257 402.505,186.232 404.738,189.631C407.318,193.558 411.485,198.069 417.461,199.269C423.269,200.436 425.461,211.269 433.461,215.269L433.461,167.269Z" style="fill:white;"/>
        </g>
    </g>
</svg>
