<?xml version="1.0" encoding="UTF-8" standalone="no"?>
<!DOCTYPE svg PUBLIC "-//W3C//DTD SVG 1.1//EN" "http://www.w3.org/Graphics/SVG/1.1/DTD/svg11.dtd">
<svg width="100%" height="100%" viewBox="0 0 952 714" version="1.1" xmlns="http://www.w3.org/2000/svg" xmlns:xlink="http://www.w3.org/1999/xlink" xml:space="preserve" xmlns:serif="http://www.serif.com/" style="fill-rule:evenodd;clip-rule:evenodd;stroke-linejoin:round;stroke-miterlimit:2;">
    <g transform="matrix(0.964386,0,0,0.979223,0.408512,1.77326)">
        <rect x="-0.424" y="-1.811" width="987.157" height="729.15" style="fill:rgb(219,119,146);"/>
    </g>
    <g id="Layer3" transform="matrix(1,0,0,1,0.410731,-56)">
        <g transform="matrix(1,0,0,1,16,328.205)">
            <g transform="matrix(1,0,0,1,-48,8)">
                <path d="M168,228C168,228 440,364 496,392C500.77,394.385 507.23,394.385 512,392C560.812,367.594 792,252 792,252L448,88L168,228Z" style="fill:rgb(219,119,146);"/>
            </g>
            <g transform="matrix(1,0,0,1,-176,72)">
                <path d="M328,164C325.333,162.667 325.615,157.193 328,156C365.043,137.478 529.659,55.17 568,36C573.131,33.435 581.333,34.667 584,36C631.942,59.971 836.024,162.012 880,184C885.155,186.577 882.667,190.667 880,192C842.377,210.811 678.272,292.864 640,312C634.869,314.565 629.155,314.577 624,312C580.003,290.001 375.74,187.87 328,164ZM392,164C389.333,162.667 389.615,157.193 392,156C429.043,137.478 529.659,87.17 568,68C573.131,65.435 581.333,66.667 584,68C631.942,91.971 764.024,158.012 808,180C813.155,182.577 810.667,186.667 808,188C770.377,206.811 673.272,258.364 635,277.5C629.869,280.065 624.155,280.077 619,277.5C575.003,255.501 439.74,187.87 392,164Z" style="fill:white;"/>
            </g>
            <g transform="matrix(1.11785,0.557274,-1.33704,0.686978,-375.939,-199.812)">
                <text x="660.442px" y="80px" style="font-family:'Montserrat-ExtraBold', 'Montserrat ExtraBold';font-weight:800;font-size:32.345px;fill:white;">MONGODB</text>
            </g>
        </g>
        <g transform="matrix(1,0,0,1,95.5893,248)">
            <g transform="matrix(1,0,0,1,-48,8)">
                <path d="M168,228C168,228 440,364 496,392C500.77,394.385 507.23,394.385 512,392C560.812,367.594 792,252 792,252L448,88L168,228Z" style="fill:rgb(219,119,146);"/>
            </g>
            <g transform="matrix(1,0,0,1,-176,72)">
                <path d="M328,164C325.333,162.667 325.615,157.193 328,156C365.043,137.478 529.659,55.17 568,36C573.131,33.435 581.333,34.667 584,36C631.942,59.971 836.024,162.012 880,184C885.155,186.577 882.667,190.667 880,192C842.377,210.811 678.272,292.864 640,312C634.869,314.565 629.155,314.577 624,312C580.003,290.001 375.74,187.87 328,164ZM392,164C389.333,162.667 389.615,157.193 392,156C429.043,137.478 529.659,87.17 568,68C573.131,65.435 581.333,66.667 584,68C631.942,91.971 764.024,158.012 808,180C813.155,182.577 810.667,186.667 808,188C770.377,206.811 670.272,256.864 632,276C626.869,278.565 621.155,278.577 616,276C572.003,254.001 439.74,187.87 392,164Z" style="fill:white;"/>
            </g>
            <g transform="matrix(0.906028,-0.452899,1.12566,0.53554,-287.08,598.842)">
                <text x="688px" y="80px" style="font-family:'Montserrat-ExtraBold', 'Montserrat ExtraBold';font-weight:800;font-size:39.871px;fill:white;">E<tspan x="714.554px 743.102px 772.088px " y="80px 80px 80px ">XPR</tspan>ESS</text>
            </g>
        </g>
        <g transform="matrix(1,0,0,1,15.5893,168)">
            <g transform="matrix(1,0,0,1,-48,-8.52651e-14)">
                <path d="M168,228C168,228 440,364 496,392C500.77,394.385 507.23,394.385 512,392C555.386,370.307 742.862,276.569 784,256C789.144,253.428 787,249.69 783.81,248.095C727.81,220.095 456,84 456,84L168,228Z" style="fill:rgb(219,119,146);"/>
            </g>
            <g transform="matrix(1,0,0,1,-176,64)">
                <path d="M328,164C325.333,162.667 325.615,157.193 328,156C365.043,137.478 529.659,55.17 568,36C573.131,33.435 581.333,34.667 584,36C631.942,59.971 836.024,162.012 880,184C885.155,186.577 882.667,190.667 880,192C842.377,210.811 678.272,292.864 640,312C634.869,314.565 629.155,314.577 624,312C580.003,290.001 375.74,187.87 328,164ZM392,164C389.333,162.667 389.615,157.193 392,156C429.043,137.478 529.659,87.17 568,68C573.131,65.435 581.333,66.667 584,68C631.942,91.971 764.024,158.012 808,180C813.155,182.577 810.667,186.667 808,188C770.377,206.811 673.272,258.364 635,277.5C629.869,280.065 624.155,280.077 619,277.5C575.003,255.501 439.74,187.87 392,164Z" style="fill:white;"/>
            </g>
            <g transform="matrix(1.1137,0.565529,-1.34208,0.677068,-376.429,-215.61)">
                <text x="697.024px" y="80px" style="font-family:'Montserrat-ExtraBold', 'Montserrat ExtraBold';font-weight:800;font-size:32.345px;fill:white;">REA<tspan x="767.795px 791.472px " y="80px 80px ">CT</tspan></text>
            </g>
        </g>
        <g transform="matrix(1,0,0,1,95.5893,80)">
            <g transform="matrix(1,0,0,1,-48,8)">
                <path d="M168,228C168,228 440,364 496,392C500.77,394.385 507.23,394.385 512,392C555.386,370.307 742.862,276.569 784,256C788,254 787,249.69 783.81,248.095C727.81,220.095 456,84 456,84L168,228Z" style="fill:rgb(219,119,146);"/>
            </g>
            <g transform="matrix(1,0,0,1,-176,72)">
                <path d="M328,164C325.333,162.667 325.615,157.193 328,156C365.043,137.478 529.659,55.17 568,36C573.131,33.435 581.333,34.667 584,36C631.942,59.971 836.024,162.012 880,184C885.155,186.577 882.667,190.667 880,192C842.377,210.811 678.272,292.864 640,312C634.869,314.565 629.155,314.577 624,312C580.003,290.001 375.74,187.87 328,164ZM392,164C389.333,162.667 389.615,157.193 392,156C429.043,137.478 529.659,87.17 568,68C573.131,65.435 581.333,66.667 584,68C631.942,91.971 764.024,158.012 808,180C813.155,182.577 810.667,186.667 808,188C770.377,206.811 670.272,256.864 632,276C626.869,278.565 621.155,278.577 616,276C572.003,254.001 439.74,187.87 392,164Z" style="fill:white;"/>
            </g>
            <g transform="matrix(0.906028,-0.452899,1.12566,0.53554,-242.752,576.691)">
                <text x="679.228px" y="80px" style="font-family:'Montserrat-ExtraBold', 'Montserrat ExtraBold';font-weight:800;font-size:39.871px;fill:white;">NODE</text>
            </g>
        </g>
    </g>
    <g transform="matrix(1,0,0,1,-160,8)">
        <g id="Layer2">
            <g>
                <g transform="matrix(1,0,0,1,128,-64)">
                    <path d="M168,228L504,396L784,256L448,88L168,228Z" style="fill:rgb(219,119,146);"/>
                </g>
                <path d="M328,164C325.333,162.667 325.615,157.193 328,156C365.043,137.478 529.659,55.17 568,36C573.131,33.435 581.333,34.667 584,36C631.942,59.971 836.024,162.012 880,184C885.155,186.577 882.667,190.667 880,192C842.377,210.811 678.272,292.864 640,312C634.869,314.565 629.155,314.577 624,312C580.003,290.001 375.74,187.87 328,164ZM392,164C389.333,162.667 389.615,157.193 392,156C429.043,137.478 529.659,87.17 568,68C573.131,65.435 581.333,66.667 584,68C631.942,91.971 764.024,158.012 808,180C813.155,182.577 810.667,186.667 808,188C770.377,206.811 673.272,258.364 635,277.5C629.869,280.065 624.155,280.077 619,277.5C575.003,255.501 439.74,187.87 392,164Z" style="fill:white;"/>
                <g transform="matrix(1,0,0,1,112,16)">
                    <path d="M392,188C389.333,186.667 389.615,181.193 392,180C429.043,161.478 497.659,127.17 536,108C541.131,105.435 549.333,106.667 552,108C599.942,131.971 540.024,102.012 584,124C589.155,126.577 586.667,130.667 584,132C546.377,150.811 478.272,184.864 440,204C434.869,206.565 429.155,206.577 424,204C380.003,182.001 439.74,211.87 392,188ZM424,188C421.333,186.667 421.615,181.193 424,180C461.043,161.478 497.659,143.17 536,124C541.131,121.435 549.333,122.667 552,124C557.155,126.577 546.845,121.423 552,124C557.155,126.577 554.667,130.667 552,132C514.377,150.811 478.272,168.864 440,188C434.869,190.565 429.155,190.577 424,188C418.845,185.423 429.155,190.577 424,188Z" style="fill:white;"/>
                </g>
                <g transform="matrix(1,0,0,1,168,44)">
                    <path d="M400,192C397.333,190.667 397.615,185.193 400,184C437.043,165.478 505.659,131.17 544,112C549.131,109.435 557.333,110.667 560,112C607.942,135.971 564.024,114.012 608,136C613.155,138.577 610.667,142.667 608,144C570.377,162.811 502.272,196.864 464,216C458.869,218.565 453.155,218.577 448,216C404.003,194.001 447.74,215.87 400,192ZM432,192C429.333,190.667 429.615,185.193 432,184C469.043,165.478 505.659,147.17 544,128C549.131,125.435 557.333,126.667 560,128C565.155,130.577 570.845,133.423 576,136C581.155,138.577 578.667,142.667 576,144C538.377,162.811 502.272,180.864 464,200C458.869,202.565 453.155,202.577 448,200C442.845,197.423 437.155,194.577 432,192Z" style="fill:white;"/>
                </g>
                <g transform="matrix(1,0,0,1,5,5.5)">
                    <path d="M640,88L432,192L448,200L656,96L640,88Z" style="fill:white;"/>
                </g>
                <path d="M416,160L425.6,164.8L438.4,164.8L438.4,171.2L448,176L457.6,171.2L457.6,164.8L470.4,164.8L480,160L470.4,155.2L457.6,155.2L457.6,148.8L448,144L438.4,148.8L438.4,155.2L425.6,155.2L416,160Z" style="fill:white;"/>
            </g>
        </g>
    </g>
</svg>
